<svg fill="none" height="64" viewBox="0 0 64 64" width="64" xmlns="http://www.w3.org/2000/svg"><path d="m32 63c17.1208 0 31-13.8792 31-31s-13.8792-31-31-31-31 13.8792-31 31 13.8792 31 31 31z" fill="#e6ecff"/><g fill="#4294ff"><path d="m56.877 50.4748c-2.8912-3.8707-6.6453-7.0138-10.9641-9.1794-4.3188-2.1655-9.0832-3.2939-13.9145-3.2954-4.8314-.0015-9.5964 1.1239-13.9166 3.2867-4.3201 2.1629-8.0763 5.3036-10.96989 9.1725 2.87889 3.8886 6.62889 7.0485 10.94929 9.2263s9.091 3.313 13.9293 3.3145c4.8383.0016 9.6096-1.1306 13.9314-3.3058 4.3218-2.1751 8.0738-5.3326 10.9551-9.2194z"/><path d="m32 34c6.6274 0 12-5.3726 12-12s-5.3726-12-12-12-12 5.3726-12 12 5.3726 12 12 12z"/></g></svg>